<svg xmlns="http://www.w3.org/2000/svg" xmlns:xlink="http://www.w3.org/1999/xlink" width="600" zoomAndPan="magnify" viewBox="0 0 450 449.999984" height="600" preserveAspectRatio="xMidYMid meet" version="1.0"><defs><g/><clipPath id="1a33e8a25b"><path d="M 7.144531 59 L 449.644531 59 L 449.644531 431.574219 L 7.144531 431.574219 Z M 7.144531 59 " clip-rule="nonzero"/></clipPath><clipPath id="bf450083a7"><path d="M 206 278 L 401.523438 278 L 401.523438 385 L 206 385 Z M 206 278 " clip-rule="nonzero"/></clipPath><clipPath id="5f47650e11"><path d="M 86 251 L 120 251 L 120 379.824219 L 86 379.824219 Z M 86 251 " clip-rule="nonzero"/></clipPath><clipPath id="31e324b33e"><path d="M 125 223 L 161 223 L 161 379.824219 L 125 379.824219 Z M 125 223 " clip-rule="nonzero"/></clipPath><clipPath id="b540fee027"><path d="M 20 56 L 108 56 L 108 151 L 20 151 Z M 20 56 " clip-rule="nonzero"/></clipPath><clipPath id="99f9712089"><path d="M 27.027344 163.148438 L -0.0546875 82.050781 L 89.578125 52.117188 L 116.660156 133.214844 Z M 27.027344 163.148438 " clip-rule="nonzero"/></clipPath><clipPath id="636183316c"><path d="M 27.027344 163.148438 L -0.0546875 82.050781 L 89.578125 52.117188 L 116.660156 133.214844 Z M 27.027344 163.148438 " clip-rule="nonzero"/></clipPath></defs><g clip-path="url(#1a33e8a25b)"><path fill="#d9d9d9" d="M 72.144531 417.789062 C 68.667969 416.050781 65.160156 414.507812 61.851562 412.628906 C 57.785156 410.332031 53.722656 407.945312 49.90625 405.253906 C 46.484375 402.84375 43.347656 400.011719 40.175781 397.261719 C 38.328125 395.636719 36.558594 393.871094 34.933594 392.019531 C 32.605469 389.328125 30.304688 386.605469 28.203125 383.71875 C 26.074219 380.773438 24.082031 377.691406 22.230469 374.550781 C 20.546875 371.71875 19.007812 368.773438 17.660156 365.800781 C 15.417969 360.835938 13.117188 355.875 11.378906 350.742188 C 10.003906 346.734375 9.445312 342.472656 8.519531 338.320312 C 7.144531 332.039062 7.3125 325.675781 7.425781 319.308594 C 7.480469 317.09375 7.929688 314.878906 8.265625 312.664062 C 8.492188 311.234375 8.769531 309.804688 9.078125 308.375 C 9.527344 306.214844 9.949219 304.082031 10.480469 301.953125 C 11.265625 298.867188 12.109375 295.8125 13.003906 292.753906 C 13.453125 291.269531 14.097656 289.839844 14.660156 288.40625 C 16.371094 283.949219 18.332031 279.601562 20.914062 275.566406 C 22.933594 272.394531 24.78125 269.117188 26.886719 266.003906 C 29.074219 262.777344 31.371094 259.582031 33.839844 256.554688 C 36.390625 253.382812 39.082031 250.242188 41.945312 247.355469 C 43.570312 245.730469 45.027344 243.992188 46.484375 242.253906 C 48.308594 240.066406 50.636719 238.296875 52.628906 236.25 C 55.488281 233.308594 58.433594 230.417969 61.011719 227.25 C 63.929688 223.6875 66.703125 219.960938 69.117188 216.035156 C 71.105469 212.78125 72.59375 209.164062 74.050781 205.628906 C 75.285156 202.6875 76.210938 199.601562 77.191406 196.546875 C 77.582031 195.285156 77.753906 193.964844 78.003906 192.675781 C 78.3125 191.078125 78.59375 189.449219 78.875 187.851562 C 79.152344 186.226562 79.378906 184.601562 79.6875 183 C 80.023438 181.179688 80.386719 179.382812 80.753906 177.5625 C 80.78125 177.476562 80.78125 177.394531 80.78125 177.308594 C 80.976562 174.671875 81.089844 172.039062 81.371094 169.402344 C 81.679688 166.289062 82.097656 163.175781 82.464844 160.0625 C 82.660156 158.464844 82.742188 156.839844 83.050781 155.242188 C 83.640625 152.101562 84.089844 148.875 85.070312 145.847656 C 86.277344 142.175781 87.707031 138.5 89.558594 135.109375 C 91.351562 131.828125 93.652344 128.769531 96.035156 125.882812 C 99.457031 121.730469 103.746094 118.394531 107.953125 115.085938 C 110.839844 112.816406 114.066406 110.9375 117.175781 108.972656 C 119.28125 107.65625 121.46875 106.507812 123.65625 105.300781 C 126.011719 104.011719 128.28125 102.46875 130.777344 101.488281 C 135.347656 99.691406 140.058594 98.148438 144.742188 96.605469 C 147.351562 95.765625 149.984375 94.980469 152.648438 94.421875 C 156.015625 93.71875 159.464844 93.269531 162.855469 92.652344 C 164.398438 92.375 165.941406 91.953125 167.484375 91.617188 C 167.625 91.589844 167.734375 91.558594 167.875 91.558594 C 170.875 91.363281 173.875 91.167969 176.90625 91 C 180.046875 90.804688 183.214844 90.410156 186.355469 90.496094 C 189.664062 90.605469 192.972656 91.195312 196.253906 91.558594 C 196.757812 91.617188 197.289062 91.589844 197.796875 91.558594 C 201.1875 91.417969 204.414062 92.203125 207.636719 93.160156 C 210.050781 93.859375 212.628906 94.027344 215.125 94.363281 C 218.292969 94.785156 221.433594 95.148438 224.601562 95.484375 C 225.445312 95.570312 226.285156 95.484375 227.125 95.484375 C 230.015625 95.484375 232.929688 95.597656 235.820312 95.457031 C 237.894531 95.34375 239.941406 94.839844 241.988281 94.503906 C 242.15625 94.476562 242.324219 94.363281 242.492188 94.390625 C 244.933594 94.53125 247.230469 93.664062 249.617188 93.355469 C 252.671875 92.960938 255.53125 92.148438 258.363281 91.054688 C 261.222656 89.933594 264.085938 88.8125 266.886719 87.578125 C 270 86.203125 273.113281 84.71875 276.140625 83.175781 C 278.835938 81.773438 281.359375 80.007812 284.132812 78.746094 C 288.003906 76.980469 292.070312 75.578125 295.996094 73.894531 C 298.40625 72.855469 300.734375 71.59375 303.117188 70.445312 C 304.097656 69.96875 305.082031 69.574219 306.089844 69.15625 C 310.15625 67.5 314.195312 65.707031 318.34375 64.21875 C 322.15625 62.875 326 61.554688 329.953125 60.828125 C 334.609375 59.957031 339.261719 58.921875 344.113281 59.003906 C 347.308594 59.058594 350.394531 59.566406 353.449219 60.238281 C 356.730469 60.996094 359.902344 62.199219 363.125 63.265625 C 366.855469 64.5 370.277344 66.433594 373.554688 68.511719 C 377.203125 70.835938 380.484375 73.558594 383.792969 76.363281 C 389.121094 80.847656 392.988281 86.402344 396.464844 92.289062 C 398.429688 95.597656 400.222656 99.046875 401.792969 102.550781 C 403.757812 106.984375 405.523438 111.46875 407.121094 116.039062 C 408.269531 119.347656 409.027344 122.824219 409.980469 126.21875 C 410.933594 129.613281 411.945312 132.976562 412.84375 136.398438 C 413.488281 138.863281 413.878906 141.390625 414.46875 143.855469 C 415.5625 148.34375 416.710938 152.828125 417.832031 157.316406 C 418.507812 160.035156 419.09375 162.785156 419.824219 165.476562 C 421.085938 170.1875 422.347656 174.898438 423.75 179.550781 C 425.515625 185.386719 427.367188 191.21875 429.359375 196.996094 C 431.601562 203.527344 434.039062 210.003906 436.339844 216.539062 C 439.199219 224.613281 442.144531 232.664062 444.808594 240.792969 C 445.929688 244.1875 446.492188 247.777344 447.25 251.28125 C 447.835938 254.03125 448.453125 256.777344 448.902344 259.554688 C 449.210938 261.515625 449.40625 263.507812 449.464844 265.5 C 449.6875 272.058594 449.996094 278.621094 449.96875 285.183594 C 449.96875 287.929688 449.265625 290.679688 448.902344 293.398438 C 448.875 293.625 448.929688 293.875 448.902344 294.101562 C 448.539062 296.371094 448.171875 298.671875 447.808594 300.941406 C 447.445312 303.15625 447.078125 305.402344 446.660156 307.617188 C 445.734375 312.777344 444.191406 317.765625 442.480469 322.703125 C 441.105469 326.628906 439.480469 330.414062 437.828125 334.226562 C 435.191406 340.339844 431.855469 346.03125 428.097656 351.527344 C 425.179688 355.820312 421.84375 359.714844 418.03125 363.164062 C 414.832031 366.082031 411.441406 368.828125 408.019531 371.492188 C 405.269531 373.652344 402.464844 375.8125 399.464844 377.578125 C 395.792969 379.765625 391.953125 381.699219 388.027344 383.46875 C 384.996094 384.839844 381.828125 385.90625 378.632812 386.859375 C 373.5 388.375 368.339844 389.777344 363.125 391.066406 C 360.378906 391.738281 357.546875 392.382812 354.742188 392.382812 C 352.496094 392.382812 350.421875 393.367188 348.207031 393.058594 C 346.523438 392.832031 344.925781 393.5625 343.355469 393.535156 C 339.542969 393.476562 335.8125 394.039062 332.054688 394.152344 C 328.128906 394.261719 324.175781 394.429688 320.277344 394.09375 C 316.605469 393.785156 312.847656 394.039062 309.230469 393.058594 C 309.175781 393.058594 309.144531 393.058594 309.089844 393.058594 C 306.175781 392.859375 303.257812 392.75 300.339844 392.46875 C 297.621094 392.1875 294.957031 391.738281 292.238281 391.375 C 290.554688 391.148438 288.84375 391.039062 287.132812 390.785156 C 284.808594 390.449219 282.480469 390.027344 280.179688 389.691406 C 278.722656 389.46875 277.261719 389.269531 275.777344 389.132812 C 273.394531 388.90625 270.953125 388.878906 268.570312 388.542969 C 263.972656 387.871094 259.375 387.953125 254.773438 388.039062 C 251.492188 388.09375 248.183594 388.234375 244.90625 388.625 C 241.484375 389.019531 238.089844 389.777344 234.667969 390.253906 C 227.210938 391.261719 219.949219 393.085938 212.851562 395.636719 C 209.125 396.984375 205.421875 398.46875 201.804688 400.125 C 196.140625 402.730469 190.5625 405.449219 184.980469 408.253906 C 182.175781 409.65625 179.539062 411.367188 176.792969 412.855469 C 173.625 414.59375 170.484375 416.304688 167.257812 417.902344 C 161.59375 420.707031 155.902344 423.367188 150.042969 425.722656 C 144.714844 427.855469 139.21875 429.230469 133.695312 430.605469 C 131.730469 431.082031 129.628906 431.136719 127.582031 431.191406 C 124.496094 431.277344 121.410156 431.164062 118.328125 431.21875 C 114.878906 431.277344 111.511719 430.800781 108.121094 430.15625 C 102.707031 429.089844 97.324219 427.941406 92.109375 426.144531 C 88.742188 424.996094 85.433594 423.789062 82.15625 422.445312 C 78.957031 421.015625 75.621094 419.386719 72.144531 417.789062 Z M 72.144531 417.789062 " fill-opacity="1" fill-rule="nonzero"/></g><path fill="#ffffff" d="M 209.410156 373.261719 C 207.664062 373.261719 206.25 371.84375 206.25 370.101562 L 206.25 242.492188 C 206.25 232.894531 214.0625 225.085938 223.664062 225.085938 L 269.492188 225.085938 C 278.269531 225.085938 285.554688 231.617188 286.730469 240.078125 L 364.832031 240.078125 C 375.464844 240.078125 384.113281 248.730469 384.113281 259.367188 L 384.113281 281.355469 C 384.113281 283.101562 382.699219 284.515625 380.953125 284.515625 C 379.203125 284.515625 377.792969 283.101562 377.792969 281.355469 L 377.792969 259.367188 C 377.792969 252.21875 371.976562 246.402344 364.832031 246.402344 L 283.738281 246.402344 C 281.988281 246.402344 280.578125 244.984375 280.578125 243.238281 L 280.578125 242.492188 C 280.578125 236.378906 275.605469 231.40625 269.492188 231.40625 L 223.664062 231.40625 C 217.546875 231.40625 212.574219 236.378906 212.574219 242.492188 L 212.574219 370.101562 C 212.574219 371.847656 211.160156 373.261719 209.410156 373.261719 Z M 209.410156 373.261719 " fill-opacity="1" fill-rule="nonzero"/><g clip-path="url(#bf450083a7)"><path fill="#ffffff" d="M 368.957031 384.953125 L 219.1875 384.953125 C 215.105469 384.953125 211.523438 383.34375 209.101562 380.410156 C 206.691406 377.492188 205.753906 373.519531 206.523438 369.503906 L 221.410156 292.449219 C 222.933594 284.585938 230.640625 278.191406 238.585938 278.191406 L 388.351562 278.191406 C 392.445312 278.191406 396.03125 279.808594 398.453125 282.746094 C 400.863281 285.664062 401.796875 289.636719 401.019531 293.644531 L 386.136719 370.699219 C 384.609375 378.5625 376.90625 384.953125 368.957031 384.953125 Z M 238.582031 284.515625 C 233.601562 284.515625 228.574219 288.703125 227.609375 293.652344 L 212.730469 370.699219 C 212.3125 372.886719 212.753906 374.90625 213.976562 376.382812 C 215.175781 377.835938 217.027344 378.632812 219.1875 378.632812 L 368.957031 378.632812 C 373.945312 378.632812 378.96875 374.449219 379.929688 369.5 L 394.8125 292.449219 C 395.230469 290.265625 394.792969 288.25 393.570312 286.773438 C 392.371094 285.316406 390.515625 284.515625 388.351562 284.515625 Z M 238.582031 284.515625 " fill-opacity="1" fill-rule="nonzero"/></g><path fill="#ffffff" d="M 224.609375 295.757812 C 222.863281 295.757812 221.449219 294.339844 221.449219 292.597656 L 221.449219 263.078125 C 221.449219 260.175781 223.804688 257.824219 226.699219 257.824219 L 360.347656 257.824219 C 363.238281 257.824219 365.589844 260.179688 365.589844 263.078125 L 365.589844 281.359375 C 365.589844 283.101562 364.175781 284.519531 362.425781 284.519531 C 360.679688 284.519531 359.265625 283.101562 359.265625 281.359375 L 359.265625 264.144531 L 227.773438 264.144531 L 227.773438 292.597656 C 227.773438 294.339844 226.359375 295.757812 224.609375 295.757812 Z M 224.609375 295.757812 " fill-opacity="1" fill-rule="nonzero"/><path fill="#a6a6a6" d="M 238.375 146.835938 L 257.332031 112.101562 C 252.511719 114.246094 247.710938 116.664062 243.007812 119.390625 C 226.292969 129.101562 212.589844 141.402344 203.59375 153.738281 L 229.453125 152.433594 C 233.203125 152.25 236.585938 150.125 238.375 146.835938 Z M 238.375 146.835938 " fill-opacity="1" fill-rule="nonzero"/><path fill="#a6a6a6" d="M 263.671875 77.976562 C 258.445312 75.101562 251.90625 77.050781 249.050781 82.273438 L 247.929688 84.332031 C 253.46875 82.050781 258.984375 80.167969 264.476562 78.652344 C 264.179688 78.453125 263.992188 78.152344 263.671875 77.976562 Z M 263.671875 77.976562 " fill-opacity="1" fill-rule="nonzero"/><path fill="#a6a6a6" d="M 140.835938 91.40625 C 142.726562 89.144531 145.378906 87.761719 148.308594 87.5 C 148.640625 87.46875 148.96875 87.457031 149.296875 87.457031 C 153.789062 87.457031 157.574219 90.140625 159.285156 94.03125 L 163.878906 93.625 C 164.984375 89.1875 168.675781 85.6875 173.476562 85.257812 C 173.808594 85.230469 174.136719 85.214844 174.464844 85.214844 C 176.632812 85.214844 178.550781 85.984375 180.253906 87.058594 C 178.289062 74.964844 169.144531 64.757812 156.425781 62.183594 C 140.011719 58.859375 124.011719 69.472656 120.6875 85.886719 C 119.890625 89.832031 119.9375 93.742188 120.636719 97.472656 L 138.695312 95.863281 C 139.089844 94.25 139.742188 92.714844 140.835938 91.40625 Z M 140.835938 91.40625 " fill-opacity="1" fill-rule="nonzero"/><path fill="#a6a6a6" d="M 174.449219 107.25 C 174.445312 107.25 174.445312 107.25 174.445312 107.25 C 168.707031 107.25 163.992188 102.933594 163.484375 97.210938 C 163.472656 97.089844 163.523438 96.988281 163.519531 96.867188 L 160.164062 97.167969 C 160.179688 97.285156 160.25 97.378906 160.261719 97.5 C 160.796875 103.546875 156.3125 108.910156 150.261719 109.449219 C 149.933594 109.476562 149.605469 109.492188 149.277344 109.492188 C 143.535156 109.492188 138.824219 105.175781 138.3125 99.449219 C 138.304688 99.332031 138.355469 99.226562 138.347656 99.109375 L 121.503906 100.605469 C 124.632812 110.945312 133.0625 119.328125 144.390625 121.621094 C 157.546875 124.285156 170.320312 117.914062 176.628906 106.859375 C 176.21875 106.945312 175.855469 107.167969 175.433594 107.207031 C 175.101562 107.238281 174.773438 107.25 174.449219 107.25 Z M 174.449219 107.25 " fill-opacity="1" fill-rule="nonzero"/><g clip-path="url(#5f47650e11)"><path fill="#a6a6a6" d="M 113.285156 251.410156 L 86.335938 267.0625 L 86.335938 363.308594 C 86.335938 372.511719 93.796875 379.96875 102.996094 379.96875 C 112.199219 379.96875 119.660156 372.511719 119.660156 363.308594 L 119.660156 254.234375 C 119.621094 254.230469 119.582031 254.230469 119.542969 254.226562 C 117.1875 253.890625 115.136719 252.804688 113.285156 251.410156 Z M 113.285156 251.410156 " fill-opacity="1" fill-rule="nonzero"/></g><path fill="#a6a6a6" d="M 92.46875 225.734375 C 90.703125 224.523438 88.914062 223.320312 87.125 222.125 C 87.046875 222.074219 86.96875 222.019531 86.890625 221.964844 L 86.789062 222.460938 C 86.636719 223.210938 86.777344 223.925781 86.789062 224.65625 C 86.679688 225.421875 86.335938 226.105469 86.335938 226.898438 L 86.335938 229.296875 Z M 92.46875 225.734375 " fill-opacity="1" fill-rule="nonzero"/><g clip-path="url(#31e324b33e)"><path fill="#a6a6a6" d="M 159.234375 363.308594 L 159.234375 232.003906 L 160.902344 223.757812 L 135.285156 238.632812 C 135.285156 239.898438 135.429688 241.113281 135.242188 242.4375 C 134.492188 247.714844 130.742188 251.902344 125.910156 253.550781 L 125.910156 363.308594 C 125.910156 372.511719 133.371094 379.96875 142.570312 379.96875 C 151.769531 379.96875 159.234375 372.511719 159.234375 363.308594 Z M 159.234375 363.308594 " fill-opacity="1" fill-rule="nonzero"/></g><path fill="#a6a6a6" d="M 164.25 217.136719 C 167.839844 215.054688 169.90625 211.363281 170.097656 207.507812 L 185.425781 198.605469 C 185.460938 198.667969 185.488281 198.734375 185.523438 198.796875 C 192.25 210.371094 206.203125 216.679688 224.957031 216.679688 C 225.671875 216.679688 226.398438 216.671875 227.125 216.652344 C 246.238281 216.167969 268 209.378906 288.394531 197.535156 C 308.789062 185.691406 325.46875 170.15625 335.359375 153.789062 C 345.628906 136.800781 347.441406 120.828125 340.464844 108.808594 L 333.101562 96.136719 C 326.121094 84.121094 311.320312 77.773438 291.503906 78.277344 C 272.390625 78.761719 250.628906 85.550781 230.234375 97.394531 C 209.835938 109.242188 193.160156 124.773438 183.265625 141.140625 C 172.996094 158.128906 171.183594 174.105469 178.164062 186.121094 C 178.273438 186.308594 178.398438 186.484375 178.511719 186.667969 L 163.171875 195.578125 C 159.726562 193.832031 155.496094 193.804688 151.910156 195.886719 L 121.851562 213.34375 C 128.5 219.328125 133.578125 226.09375 135 234.125 Z M 240.980469 115.898438 C 261.9375 103.722656 283.601562 97.542969 301.136719 97.542969 C 313.21875 97.542969 323.324219 100.492188 329.90625 106.425781 C 331.820312 115.269531 329.226562 126.0625 322.234375 137.628906 C 312.914062 153.042969 297.082031 167.746094 277.648438 179.03125 C 242.226562 199.605469 204.804688 203.050781 188.691406 188.480469 C 184.019531 167.265625 205.558594 136.46875 240.980469 115.898438 Z M 240.980469 115.898438 " fill-opacity="1" fill-rule="nonzero"/><path fill="#a6a6a6" d="M 107.6875 239.085938 C 107.453125 238.578125 106.636719 237.140625 104.132812 234.742188 C 101.917969 232.621094 99.144531 230.453125 96.125 228.285156 L 58.238281 250.289062 C 52.605469 253.5625 50.691406 260.78125 53.960938 266.414062 L 54.457031 267.261719 C 57.726562 272.898438 64.945312 274.808594 70.578125 271.539062 L 110.242188 248.503906 C 108.277344 245.742188 107.34375 242.445312 107.6875 239.085938 Z M 107.6875 239.085938 " fill-opacity="1" fill-rule="nonzero"/><path fill="#a6a6a6" d="M 88.835938 219.539062 C 95.191406 223.785156 101.761719 228.171875 106.277344 232.503906 C 110.222656 236.285156 110.898438 238.449219 110.828125 238.964844 C 109.984375 244.859375 114.085938 250.316406 119.980469 251.15625 C 120.496094 251.230469 121.007812 251.265625 121.511719 251.265625 C 126.792969 251.265625 131.40625 247.382812 132.171875 242 C 134.699219 224.246094 116.695312 212.21875 100.8125 201.609375 C 96.101562 198.460938 89.3125 193.925781 86.613281 191.148438 C 92.476562 172.253906 98.660156 161.199219 103.808594 154.6875 L 106.78125 155.933594 C 103.824219 159.535156 100.375 165.160156 96.804688 172.996094 L 92.886719 192.351562 C 95.882812 194.585938 99.644531 197.101562 102.484375 199 C 107.914062 202.625 113.511719 206.441406 118.582031 210.570312 L 149.878906 192.390625 C 152.292969 190.992188 155.035156 190.253906 157.808594 190.253906 C 159.523438 190.253906 161.238281 190.535156 162.867188 191.082031 L 168.136719 188.019531 L 170.515625 176.277344 C 168.6875 165.136719 171.773438 152.335938 179.808594 139.046875 C 181.019531 137.042969 182.632812 135.113281 184.035156 133.136719 L 166.855469 134.003906 L 117.355469 123.980469 C 117.105469 123.933594 116.878906 124.015625 116.628906 123.980469 C 116.550781 123.972656 116.484375 123.925781 116.402344 123.917969 C 115.726562 123.867188 114.667969 123.851562 113.324219 123.980469 C 113.269531 123.992188 113.214844 123.992188 113.164062 124.003906 C 107.15625 124.625 95.421875 128.394531 83.464844 146.140625 C 77.148438 155.515625 70.777344 168.722656 65.171875 187.554688 C 61.15625 201.046875 74.601562 210.03125 88.835938 219.539062 Z M 88.835938 219.539062 " fill-opacity="1" fill-rule="nonzero"/><path fill="#a6a6a6" d="M 173.753906 88.347656 C 169.398438 88.734375 166.183594 92.582031 166.570312 96.933594 C 166.957031 101.292969 170.804688 104.507812 175.15625 104.121094 C 179.511719 103.734375 182.730469 99.886719 182.339844 95.53125 C 181.953125 91.175781 178.109375 87.960938 173.753906 88.347656 Z M 173.753906 88.347656 " fill-opacity="1" fill-rule="nonzero"/><path fill="#a6a6a6" d="M 148.585938 90.585938 C 144.230469 90.972656 141.015625 94.820312 141.402344 99.175781 C 141.785156 103.53125 145.632812 106.746094 149.988281 106.359375 C 154.34375 105.972656 157.558594 102.128906 157.171875 97.773438 C 156.785156 93.417969 152.941406 90.199219 148.585938 90.585938 Z M 148.585938 90.585938 " fill-opacity="1" fill-rule="nonzero"/><path fill="#a6a6a6" d="M 274.285156 167.839844 C 244.347656 187.113281 211.480469 189.839844 199.027344 174.570312 C 199.378906 175.285156 199.757812 175.984375 200.191406 176.660156 C 211.394531 194.058594 245.722656 191.90625 276.867188 171.855469 C 308.015625 151.800781 324.183594 121.441406 312.980469 104.042969 C 312.667969 103.558594 312.3125 103.109375 311.964844 102.660156 C 311.824219 102.480469 311.703125 102.289062 311.558594 102.113281 C 311.636719 102.265625 311.636719 102.453125 311.710938 102.609375 C 319.949219 120.304688 303.960938 148.730469 274.285156 167.839844 Z M 274.285156 167.839844 " fill-opacity="1" fill-rule="nonzero"/><g clip-path="url(#b540fee027)"><g clip-path="url(#99f9712089)"><g clip-path="url(#636183316c)"><path fill="#d9d9d9" d="M 76.167969 56.835938 C 80.355469 58.546875 83.0625 61.695312 85.304688 65.578125 C 90.703125 74.859375 96.441406 83.957031 101.871094 93.226562 C 103.644531 96.316406 105.1875 99.519531 106.488281 102.800781 C 107.695312 105.8125 106.816406 108.4375 104.667969 109.695312 C 102.429688 110.984375 99.46875 110.417969 97.640625 107.582031 C 94.628906 102.910156 92.0625 97.957031 89.242188 93.152344 C 84.980469 85.859375 80.527344 78.695312 76.480469 71.328125 C 74.105469 67.054688 73.230469 62.3125 74.535156 57.414062 Z M 21.234375 145.804688 C 24.398438 148.496094 28.007812 150.300781 32.164062 150.296875 C 42.90625 150.289062 53.660156 150.113281 64.433594 149.792969 C 66.542969 149.730469 68.628906 149.203125 70.511719 148.269531 C 71.761719 147.648438 73.207031 145.914062 73.15625 144.75 C 73.074219 143.390625 71.605469 141.921875 70.4375 140.859375 C 69.757812 140.242188 68.472656 140.132812 67.429688 140.039062 C 55.042969 139.175781 42.65625 138.414062 30.34375 140.394531 C 27.039062 140.925781 24.019531 143.21875 20.871094 144.707031 Z M 35.804688 100.792969 C 44.300781 107.722656 52.597656 114.851562 62.765625 119.398438 C 65.1875 120.480469 67.328125 122.234375 69.679688 123.507812 C 71.777344 124.632812 73.894531 125.816406 76.175781 126.472656 C 78.203125 127.082031 80.261719 126.460938 81.292969 124.292969 C 82.265625 122.246094 81.484375 120.410156 79.933594 119.105469 C 76.636719 116.320312 73.390625 113.382812 69.761719 111.113281 C 62.484375 106.617188 54.992188 102.496094 47.570312 98.285156 C 44.648438 96.625 41.699219 94.972656 38.71875 93.433594 C 36.398438 92.25 33.945312 91.480469 31.179688 92.710938 C 31.445312 96.238281 33.300781 98.757812 35.804688 100.792969 Z M 35.804688 100.792969 " fill-opacity="1" fill-rule="nonzero"/></g></g></g><g fill="#737373" fill-opacity="1"><g transform="translate(58.959964, 426.466988)"><g><path d="M 27.484375 0 L 20.171875 0 L 8.375 -20.515625 L 8.203125 -20.515625 C 8.429688 -16.890625 8.546875 -14.304688 8.546875 -12.765625 L 8.546875 0 L 3.421875 0 L 3.421875 -27.125 L 10.671875 -27.125 L 22.453125 -6.8125 L 22.578125 -6.8125 C 22.390625 -10.332031 22.296875 -12.820312 22.296875 -14.28125 L 22.296875 -27.125 L 27.484375 -27.125 Z M 27.484375 0 "/></g></g></g><g fill="#737373" fill-opacity="1"><g transform="translate(89.847165, 426.466988)"><g><path d="M 11.5625 -17.109375 C 10.363281 -17.109375 9.421875 -16.726562 8.734375 -15.96875 C 8.054688 -15.207031 7.671875 -14.128906 7.578125 -12.734375 L 15.515625 -12.734375 C 15.484375 -14.128906 15.113281 -15.207031 14.40625 -15.96875 C 13.707031 -16.726562 12.757812 -17.109375 11.5625 -17.109375 Z M 12.359375 0.375 C 9.015625 0.375 6.398438 -0.546875 4.515625 -2.390625 C 2.640625 -4.234375 1.703125 -6.84375 1.703125 -10.21875 C 1.703125 -13.695312 2.570312 -16.382812 4.3125 -18.28125 C 6.050781 -20.1875 8.453125 -21.140625 11.515625 -21.140625 C 14.453125 -21.140625 16.734375 -20.300781 18.359375 -18.625 C 19.992188 -16.957031 20.8125 -14.648438 20.8125 -11.703125 L 20.8125 -8.96875 L 7.4375 -8.96875 C 7.5 -7.351562 7.972656 -6.09375 8.859375 -5.1875 C 9.753906 -4.289062 11.007812 -3.84375 12.625 -3.84375 C 13.863281 -3.84375 15.039062 -3.972656 16.15625 -4.234375 C 17.269531 -4.492188 18.4375 -4.90625 19.65625 -5.46875 L 19.65625 -1.09375 C 18.664062 -0.601562 17.601562 -0.238281 16.46875 0 C 15.34375 0.25 13.972656 0.375 12.359375 0.375 Z M 12.359375 0.375 "/></g></g></g><g fill="#737373" fill-opacity="1"><g transform="translate(112.293719, 426.466988)"><g><path d="M 22.125 0 L 16.453125 0 L 16.453125 -12.109375 C 16.453125 -13.609375 16.1875 -14.734375 15.65625 -15.484375 C 15.125 -16.234375 14.28125 -16.609375 13.125 -16.609375 C 11.539062 -16.609375 10.394531 -16.078125 9.6875 -15.015625 C 8.976562 -13.960938 8.625 -12.210938 8.625 -9.765625 L 8.625 0 L 2.96875 0 L 2.96875 -20.75 L 7.296875 -20.75 L 8.046875 -18.09375 L 8.375 -18.09375 C 9 -19.09375 9.863281 -19.847656 10.96875 -20.359375 C 12.082031 -20.878906 13.34375 -21.140625 14.75 -21.140625 C 17.164062 -21.140625 19 -20.484375 20.25 -19.171875 C 21.5 -17.867188 22.125 -15.988281 22.125 -13.53125 Z M 22.125 0 "/></g></g></g><g fill="#737373" fill-opacity="1"><g transform="translate(137.263191, 426.466988)"><g><path d="M 22.125 0 L 16.453125 0 L 16.453125 -12.109375 C 16.453125 -15.109375 15.34375 -16.609375 13.125 -16.609375 C 11.539062 -16.609375 10.394531 -16.066406 9.6875 -14.984375 C 8.976562 -13.910156 8.625 -12.171875 8.625 -9.765625 L 8.625 0 L 2.96875 0 L 2.96875 -28.875 L 8.625 -28.875 L 8.625 -22.984375 C 8.625 -22.523438 8.582031 -21.453125 8.5 -19.765625 L 8.375 -18.09375 L 8.671875 -18.09375 C 9.929688 -20.125 11.929688 -21.140625 14.671875 -21.140625 C 17.109375 -21.140625 18.957031 -20.484375 20.21875 -19.171875 C 21.488281 -17.859375 22.125 -15.976562 22.125 -13.53125 Z M 22.125 0 "/></g></g></g><g fill="#737373" fill-opacity="1"><g transform="translate(162.232664, 426.466988)"><g><path d="M 17.671875 0 L 16.90625 -2.65625 L 16.609375 -2.65625 C 16.003906 -1.6875 15.144531 -0.9375 14.03125 -0.40625 C 12.914062 0.113281 11.644531 0.375 10.21875 0.375 C 7.78125 0.375 5.941406 -0.273438 4.703125 -1.578125 C 3.472656 -2.890625 2.859375 -4.769531 2.859375 -7.21875 L 2.859375 -20.75 L 8.515625 -20.75 L 8.515625 -8.625 C 8.515625 -7.132812 8.78125 -6.015625 9.3125 -5.265625 C 9.84375 -4.515625 10.691406 -4.140625 11.859375 -4.140625 C 13.441406 -4.140625 14.582031 -4.664062 15.28125 -5.71875 C 15.988281 -6.78125 16.34375 -8.535156 16.34375 -10.984375 L 16.34375 -20.75 L 22 -20.75 L 22 0 Z M 17.671875 0 "/></g></g></g><g fill="#737373" fill-opacity="1"><g transform="translate(187.202137, 426.466988)"><g><path d="M 21.546875 0 L 15.890625 0 L 15.890625 -12.109375 C 15.890625 -13.609375 15.632812 -14.734375 15.125 -15.484375 C 14.625 -16.234375 13.835938 -16.609375 12.765625 -16.609375 C 11.316406 -16.609375 10.265625 -16.078125 9.609375 -15.015625 C 8.953125 -13.953125 8.625 -12.203125 8.625 -9.765625 L 8.625 0 L 2.96875 0 L 2.96875 -20.75 L 7.296875 -20.75 L 8.046875 -18.09375 L 8.375 -18.09375 C 8.925781 -19.039062 9.726562 -19.785156 10.78125 -20.328125 C 11.832031 -20.867188 13.039062 -21.140625 14.40625 -21.140625 C 17.507812 -21.140625 19.609375 -20.125 20.703125 -18.09375 L 21.203125 -18.09375 C 21.765625 -19.050781 22.585938 -19.796875 23.671875 -20.328125 C 24.753906 -20.867188 25.972656 -21.140625 27.328125 -21.140625 C 29.679688 -21.140625 31.457031 -20.535156 32.65625 -19.328125 C 33.863281 -18.117188 34.46875 -16.1875 34.46875 -13.53125 L 34.46875 0 L 28.796875 0 L 28.796875 -12.109375 C 28.796875 -13.609375 28.546875 -14.734375 28.046875 -15.484375 C 27.546875 -16.234375 26.757812 -16.609375 25.6875 -16.609375 C 24.300781 -16.609375 23.265625 -16.113281 22.578125 -15.125 C 21.890625 -14.132812 21.546875 -12.5625 21.546875 -10.40625 Z M 21.546875 0 "/></g></g></g><g fill="#737373" fill-opacity="1"><g transform="translate(224.50794, 426.466988)"><g/></g></g><g fill="#737373" fill-opacity="1"><g transform="translate(234.377003, 426.466988)"><g><path d="M 9.171875 -15.078125 L 11.015625 -15.078125 C 12.835938 -15.078125 14.179688 -15.378906 15.046875 -15.984375 C 15.910156 -16.597656 16.34375 -17.554688 16.34375 -18.859375 C 16.34375 -20.140625 15.898438 -21.050781 15.015625 -21.59375 C 14.128906 -22.144531 12.757812 -22.421875 10.90625 -22.421875 L 9.171875 -22.421875 Z M 9.171875 -10.40625 L 9.171875 0 L 3.421875 0 L 3.421875 -27.125 L 11.3125 -27.125 C 15 -27.125 17.726562 -26.453125 19.5 -25.109375 C 21.269531 -23.765625 22.15625 -21.726562 22.15625 -19 C 22.15625 -17.40625 21.710938 -15.984375 20.828125 -14.734375 C 19.953125 -13.492188 18.710938 -12.519531 17.109375 -11.8125 C 21.191406 -5.71875 23.851562 -1.78125 25.09375 0 L 18.703125 0 L 12.234375 -10.40625 Z M 9.171875 -10.40625 "/></g></g></g><g fill="#737373" fill-opacity="1"><g transform="translate(259.457781, 426.466988)"><g><path d="M 11.5625 -17.109375 C 10.363281 -17.109375 9.421875 -16.726562 8.734375 -15.96875 C 8.054688 -15.207031 7.671875 -14.128906 7.578125 -12.734375 L 15.515625 -12.734375 C 15.484375 -14.128906 15.113281 -15.207031 14.40625 -15.96875 C 13.707031 -16.726562 12.757812 -17.109375 11.5625 -17.109375 Z M 12.359375 0.375 C 9.015625 0.375 6.398438 -0.546875 4.515625 -2.390625 C 2.640625 -4.234375 1.703125 -6.84375 1.703125 -10.21875 C 1.703125 -13.695312 2.570312 -16.382812 4.3125 -18.28125 C 6.050781 -20.1875 8.453125 -21.140625 11.515625 -21.140625 C 14.453125 -21.140625 16.734375 -20.300781 18.359375 -18.625 C 19.992188 -16.957031 20.8125 -14.648438 20.8125 -11.703125 L 20.8125 -8.96875 L 7.4375 -8.96875 C 7.5 -7.351562 7.972656 -6.09375 8.859375 -5.1875 C 9.753906 -4.289062 11.007812 -3.84375 12.625 -3.84375 C 13.863281 -3.84375 15.039062 -3.972656 16.15625 -4.234375 C 17.269531 -4.492188 18.4375 -4.90625 19.65625 -5.46875 L 19.65625 -1.09375 C 18.664062 -0.601562 17.601562 -0.238281 16.46875 0 C 15.34375 0.25 13.972656 0.375 12.359375 0.375 Z M 12.359375 0.375 "/></g></g></g><g fill="#737373" fill-opacity="1"><g transform="translate(281.904335, 426.466988)"><g><path d="M 21.015625 -20.75 L 21.015625 -17.875 L 17.78125 -17.03125 C 18.375 -16.101562 18.671875 -15.066406 18.671875 -13.921875 C 18.671875 -11.691406 17.894531 -9.953125 16.34375 -8.703125 C 14.789062 -7.460938 12.632812 -6.84375 9.875 -6.84375 L 8.84375 -6.90625 L 8.015625 -7 C 7.429688 -6.550781 7.140625 -6.054688 7.140625 -5.515625 C 7.140625 -4.691406 8.179688 -4.28125 10.265625 -4.28125 L 13.78125 -4.28125 C 16.0625 -4.28125 17.796875 -3.789062 18.984375 -2.8125 C 20.179688 -1.84375 20.78125 -0.410156 20.78125 1.484375 C 20.78125 3.910156 19.769531 5.789062 17.75 7.125 C 15.726562 8.457031 12.820312 9.125 9.03125 9.125 C 6.132812 9.125 3.921875 8.617188 2.390625 7.609375 C 0.867188 6.609375 0.109375 5.195312 0.109375 3.375 C 0.109375 2.125 0.5 1.078125 1.28125 0.234375 C 2.0625 -0.597656 3.207031 -1.195312 4.71875 -1.5625 C 4.132812 -1.8125 3.625 -2.21875 3.1875 -2.78125 C 2.757812 -3.34375 2.546875 -3.9375 2.546875 -4.5625 C 2.546875 -5.351562 2.773438 -6.007812 3.234375 -6.53125 C 3.691406 -7.0625 4.351562 -7.582031 5.21875 -8.09375 C 4.125 -8.5625 3.257812 -9.3125 2.625 -10.34375 C 1.988281 -11.382812 1.671875 -12.613281 1.671875 -14.03125 C 1.671875 -16.289062 2.40625 -18.039062 3.875 -19.28125 C 5.351562 -20.519531 7.457031 -21.140625 10.1875 -21.140625 C 10.769531 -21.140625 11.457031 -21.082031 12.25 -20.96875 C 13.050781 -20.863281 13.5625 -20.789062 13.78125 -20.75 Z M 5.015625 2.9375 C 5.015625 3.707031 5.382812 4.316406 6.125 4.765625 C 6.875 5.210938 7.925781 5.4375 9.28125 5.4375 C 11.3125 5.4375 12.898438 5.15625 14.046875 4.59375 C 15.191406 4.039062 15.765625 3.28125 15.765625 2.3125 C 15.765625 1.539062 15.425781 1.003906 14.75 0.703125 C 14.070312 0.410156 13.019531 0.265625 11.59375 0.265625 L 8.671875 0.265625 C 7.628906 0.265625 6.757812 0.503906 6.0625 0.984375 C 5.363281 1.472656 5.015625 2.125 5.015625 2.9375 Z M 7.0625 -13.953125 C 7.0625 -12.828125 7.316406 -11.9375 7.828125 -11.28125 C 8.347656 -10.625 9.132812 -10.296875 10.1875 -10.296875 C 11.25 -10.296875 12.023438 -10.625 12.515625 -11.28125 C 13.015625 -11.9375 13.265625 -12.828125 13.265625 -13.953125 C 13.265625 -16.453125 12.238281 -17.703125 10.1875 -17.703125 C 8.101562 -17.703125 7.0625 -16.453125 7.0625 -13.953125 Z M 7.0625 -13.953125 "/></g></g></g><g fill="#737373" fill-opacity="1"><g transform="translate(303.367705, 426.466988)"><g><path d="M 2.734375 -26.109375 C 2.734375 -27.953125 3.757812 -28.875 5.8125 -28.875 C 7.863281 -28.875 8.890625 -27.953125 8.890625 -26.109375 C 8.890625 -25.234375 8.628906 -24.550781 8.109375 -24.0625 C 7.597656 -23.570312 6.832031 -23.328125 5.8125 -23.328125 C 3.757812 -23.328125 2.734375 -24.253906 2.734375 -26.109375 Z M 8.625 0 L 2.96875 0 L 2.96875 -20.75 L 8.625 -20.75 Z M 8.625 0 "/></g></g></g><g fill="#737373" fill-opacity="1"><g transform="translate(314.961988, 426.466988)"><g><path d="M 17.4375 -6.15625 C 17.4375 -4.03125 16.695312 -2.410156 15.21875 -1.296875 C 13.738281 -0.179688 11.53125 0.375 8.59375 0.375 C 7.082031 0.375 5.796875 0.269531 4.734375 0.0625 C 3.671875 -0.132812 2.675781 -0.429688 1.75 -0.828125 L 1.75 -5.515625 C 2.800781 -5.015625 3.984375 -4.597656 5.296875 -4.265625 C 6.617188 -3.929688 7.78125 -3.765625 8.78125 -3.765625 C 10.832031 -3.765625 11.859375 -4.359375 11.859375 -5.546875 C 11.859375 -5.992188 11.722656 -6.351562 11.453125 -6.625 C 11.179688 -6.90625 10.707031 -7.222656 10.03125 -7.578125 C 9.363281 -7.929688 8.472656 -8.34375 7.359375 -8.8125 C 5.765625 -9.476562 4.59375 -10.09375 3.84375 -10.65625 C 3.101562 -11.226562 2.5625 -11.882812 2.21875 -12.625 C 1.875 -13.363281 1.703125 -14.269531 1.703125 -15.34375 C 1.703125 -17.1875 2.414062 -18.613281 3.84375 -19.625 C 5.28125 -20.632812 7.304688 -21.140625 9.921875 -21.140625 C 12.421875 -21.140625 14.851562 -20.59375 17.21875 -19.5 L 15.515625 -15.421875 C 14.472656 -15.867188 13.5 -16.234375 12.59375 -16.515625 C 11.695312 -16.796875 10.773438 -16.9375 9.828125 -16.9375 C 8.160156 -16.9375 7.328125 -16.488281 7.328125 -15.59375 C 7.328125 -15.082031 7.59375 -14.640625 8.125 -14.265625 C 8.664062 -13.898438 9.847656 -13.351562 11.671875 -12.625 C 13.296875 -11.96875 14.484375 -11.351562 15.234375 -10.78125 C 15.984375 -10.207031 16.535156 -9.550781 16.890625 -8.8125 C 17.253906 -8.070312 17.4375 -7.1875 17.4375 -6.15625 Z M 17.4375 -6.15625 "/></g></g></g><g fill="#737373" fill-opacity="1"><g transform="translate(333.846775, 426.466988)"><g><path d="M 11.703125 -4.140625 C 12.691406 -4.140625 13.878906 -4.351562 15.265625 -4.78125 L 15.265625 -0.578125 C 13.859375 0.0546875 12.128906 0.375 10.078125 0.375 C 7.816406 0.375 6.164062 -0.195312 5.125 -1.34375 C 4.09375 -2.488281 3.578125 -4.207031 3.578125 -6.5 L 3.578125 -16.5 L 0.875 -16.5 L 0.875 -18.890625 L 3.984375 -20.78125 L 5.625 -25.15625 L 9.234375 -25.15625 L 9.234375 -20.75 L 15.046875 -20.75 L 15.046875 -16.5 L 9.234375 -16.5 L 9.234375 -6.5 C 9.234375 -5.6875 9.457031 -5.085938 9.90625 -4.703125 C 10.363281 -4.328125 10.960938 -4.140625 11.703125 -4.140625 Z M 11.703125 -4.140625 "/></g></g></g><g fill="#737373" fill-opacity="1"><g transform="translate(350.338511, 426.466988)"><g><path d="M 14.546875 -21.140625 C 15.316406 -21.140625 15.953125 -21.082031 16.453125 -20.96875 L 16.03125 -15.65625 C 15.570312 -15.78125 15.015625 -15.84375 14.359375 -15.84375 C 12.554688 -15.84375 11.148438 -15.378906 10.140625 -14.453125 C 9.128906 -13.523438 8.625 -12.226562 8.625 -10.5625 L 8.625 0 L 2.96875 0 L 2.96875 -20.75 L 7.25 -20.75 L 8.09375 -17.25 L 8.375 -17.25 C 9.007812 -18.414062 9.875 -19.351562 10.96875 -20.0625 C 12.070312 -20.78125 13.265625 -21.140625 14.546875 -21.140625 Z M 14.546875 -21.140625 "/></g></g></g><g fill="#737373" fill-opacity="1"><g transform="translate(367.590821, 426.466988)"><g><path d="M 7.484375 -10.40625 C 7.484375 -8.351562 7.816406 -6.800781 8.484375 -5.75 C 9.160156 -4.695312 10.257812 -4.171875 11.78125 -4.171875 C 13.289062 -4.171875 14.375 -4.691406 15.03125 -5.734375 C 15.695312 -6.785156 16.03125 -8.34375 16.03125 -10.40625 C 16.03125 -12.457031 15.695312 -13.992188 15.03125 -15.015625 C 14.363281 -16.046875 13.269531 -16.5625 11.75 -16.5625 C 10.238281 -16.5625 9.148438 -16.050781 8.484375 -15.03125 C 7.816406 -14.019531 7.484375 -12.476562 7.484375 -10.40625 Z M 21.828125 -10.40625 C 21.828125 -7.03125 20.9375 -4.390625 19.15625 -2.484375 C 17.375 -0.578125 14.890625 0.375 11.703125 0.375 C 9.710938 0.375 7.957031 -0.0625 6.4375 -0.9375 C 4.914062 -1.8125 3.742188 -3.0625 2.921875 -4.6875 C 2.109375 -6.320312 1.703125 -8.226562 1.703125 -10.40625 C 1.703125 -13.800781 2.585938 -16.4375 4.359375 -18.3125 C 6.128906 -20.195312 8.613281 -21.140625 11.8125 -21.140625 C 13.8125 -21.140625 15.570312 -20.703125 17.09375 -19.828125 C 18.613281 -18.960938 19.78125 -17.71875 20.59375 -16.09375 C 21.414062 -14.476562 21.828125 -12.582031 21.828125 -10.40625 Z M 21.828125 -10.40625 "/></g></g></g></svg>